<mxfile host="app.diagrams.net" modified="2021-01-21T08:15:58.628Z" agent="5.0 (Windows)" etag="LLXAqO5dmBpaYpeR_VIl" version="14.2.4" type="github">
  <diagram id="ULwS5uZ5bdoghOCn8P2p" name="Page-1">
    <mxGraphModel dx="945" dy="626" grid="1" gridSize="10" guides="1" tooltips="1" connect="1" arrows="1" fold="1" page="1" pageScale="1" pageWidth="1169" pageHeight="1654" math="0" shadow="0">
      <root>
        <mxCell id="0" />
        <mxCell id="1" parent="0" />
        <mxCell id="OdL-v_ZTiXRBNA4wivII-34" style="rounded=0;orthogonalLoop=1;jettySize=auto;html=1;exitX=1;exitY=0.25;exitDx=0;exitDy=0;entryX=0.008;entryY=0.613;entryDx=0;entryDy=0;entryPerimeter=0;startArrow=none;startFill=0;endArrow=none;endFill=0;" edge="1" parent="1" source="OdL-v_ZTiXRBNA4wivII-42" target="OdL-v_ZTiXRBNA4wivII-31">
          <mxGeometry relative="1" as="geometry" />
        </mxCell>
        <mxCell id="OdL-v_ZTiXRBNA4wivII-1" value="UTILISATEUR" style="swimlane;fontStyle=0;childLayout=stackLayout;horizontal=1;startSize=26;fillColor=none;horizontalStack=0;resizeParent=1;resizeParentMax=0;resizeLast=0;collapsible=1;marginBottom=0;" vertex="1" parent="1">
          <mxGeometry x="20" y="306" width="140" height="104" as="geometry" />
        </mxCell>
        <mxCell id="OdL-v_ZTiXRBNA4wivII-2" value="pseudo" style="text;strokeColor=none;fillColor=none;align=left;verticalAlign=top;spacingLeft=4;spacingRight=4;overflow=hidden;rotatable=0;points=[[0,0.5],[1,0.5]];portConstraint=eastwest;" vertex="1" parent="OdL-v_ZTiXRBNA4wivII-1">
          <mxGeometry y="26" width="140" height="26" as="geometry" />
        </mxCell>
        <mxCell id="OdL-v_ZTiXRBNA4wivII-3" value="email" style="text;strokeColor=none;fillColor=none;align=left;verticalAlign=top;spacingLeft=4;spacingRight=4;overflow=hidden;rotatable=0;points=[[0,0.5],[1,0.5]];portConstraint=eastwest;" vertex="1" parent="OdL-v_ZTiXRBNA4wivII-1">
          <mxGeometry y="52" width="140" height="26" as="geometry" />
        </mxCell>
        <mxCell id="OdL-v_ZTiXRBNA4wivII-4" value="mot de passe&#xa;" style="text;strokeColor=none;fillColor=none;align=left;verticalAlign=top;spacingLeft=4;spacingRight=4;overflow=hidden;rotatable=0;points=[[0,0.5],[1,0.5]];portConstraint=eastwest;" vertex="1" parent="OdL-v_ZTiXRBNA4wivII-1">
          <mxGeometry y="78" width="140" height="26" as="geometry" />
        </mxCell>
        <mxCell id="OdL-v_ZTiXRBNA4wivII-37" style="edgeStyle=none;rounded=0;orthogonalLoop=1;jettySize=auto;html=1;entryX=1;entryY=0.5;entryDx=0;entryDy=0;startArrow=none;startFill=0;endArrow=none;endFill=0;" edge="1" parent="OdL-v_ZTiXRBNA4wivII-1" source="OdL-v_ZTiXRBNA4wivII-2" target="OdL-v_ZTiXRBNA4wivII-2">
          <mxGeometry relative="1" as="geometry" />
        </mxCell>
        <mxCell id="OdL-v_ZTiXRBNA4wivII-5" value="ANNONCE" style="swimlane;fontStyle=0;childLayout=stackLayout;horizontal=1;startSize=26;fillColor=none;horizontalStack=0;resizeParent=1;resizeParentMax=0;resizeLast=0;collapsible=1;marginBottom=0;" vertex="1" parent="1">
          <mxGeometry x="445" y="280" width="140" height="156" as="geometry" />
        </mxCell>
        <mxCell id="OdL-v_ZTiXRBNA4wivII-6" value="titre" style="text;strokeColor=none;fillColor=none;align=left;verticalAlign=top;spacingLeft=4;spacingRight=4;overflow=hidden;rotatable=0;points=[[0,0.5],[1,0.5]];portConstraint=eastwest;" vertex="1" parent="OdL-v_ZTiXRBNA4wivII-5">
          <mxGeometry y="26" width="140" height="26" as="geometry" />
        </mxCell>
        <mxCell id="OdL-v_ZTiXRBNA4wivII-7" value="description" style="text;strokeColor=none;fillColor=none;align=left;verticalAlign=top;spacingLeft=4;spacingRight=4;overflow=hidden;rotatable=0;points=[[0,0.5],[1,0.5]];portConstraint=eastwest;" vertex="1" parent="OdL-v_ZTiXRBNA4wivII-5">
          <mxGeometry y="52" width="140" height="26" as="geometry" />
        </mxCell>
        <mxCell id="OdL-v_ZTiXRBNA4wivII-8" value="Prix de départ" style="text;strokeColor=none;fillColor=none;align=left;verticalAlign=top;spacingLeft=4;spacingRight=4;overflow=hidden;rotatable=0;points=[[0,0.5],[1,0.5]];portConstraint=eastwest;" vertex="1" parent="OdL-v_ZTiXRBNA4wivII-5">
          <mxGeometry y="78" width="140" height="26" as="geometry" />
        </mxCell>
        <mxCell id="OdL-v_ZTiXRBNA4wivII-10" value="date de fin d&#39;enchère&#xa;" style="text;strokeColor=none;fillColor=none;align=left;verticalAlign=top;spacingLeft=4;spacingRight=4;overflow=hidden;rotatable=0;points=[[0,0.5],[1,0.5]];portConstraint=eastwest;" vertex="1" parent="OdL-v_ZTiXRBNA4wivII-5">
          <mxGeometry y="104" width="140" height="26" as="geometry" />
        </mxCell>
        <mxCell id="OdL-v_ZTiXRBNA4wivII-11" value="Prix Plafond&#xa;" style="text;strokeColor=none;fillColor=none;align=left;verticalAlign=top;spacingLeft=4;spacingRight=4;overflow=hidden;rotatable=0;points=[[0,0.5],[1,0.5]];portConstraint=eastwest;" vertex="1" parent="OdL-v_ZTiXRBNA4wivII-5">
          <mxGeometry y="130" width="140" height="26" as="geometry" />
        </mxCell>
        <mxCell id="OdL-v_ZTiXRBNA4wivII-51" style="edgeStyle=none;rounded=0;orthogonalLoop=1;jettySize=auto;html=1;exitX=0.5;exitY=1;exitDx=0;exitDy=0;entryX=0.5;entryY=0;entryDx=0;entryDy=0;startArrow=none;startFill=0;endArrow=none;endFill=0;" edge="1" parent="1" source="OdL-v_ZTiXRBNA4wivII-53" target="OdL-v_ZTiXRBNA4wivII-28">
          <mxGeometry relative="1" as="geometry" />
        </mxCell>
        <mxCell id="OdL-v_ZTiXRBNA4wivII-12" value="CATEGORIE" style="swimlane;fontStyle=0;childLayout=stackLayout;horizontal=1;startSize=26;fillColor=none;horizontalStack=0;resizeParent=1;resizeParentMax=0;resizeLast=0;collapsible=1;marginBottom=0;" vertex="1" parent="1">
          <mxGeometry x="445" y="92" width="140" height="52" as="geometry" />
        </mxCell>
        <mxCell id="OdL-v_ZTiXRBNA4wivII-13" value="titre" style="text;strokeColor=none;fillColor=none;align=left;verticalAlign=top;spacingLeft=4;spacingRight=4;overflow=hidden;rotatable=0;points=[[0,0.5],[1,0.5]];portConstraint=eastwest;" vertex="1" parent="OdL-v_ZTiXRBNA4wivII-12">
          <mxGeometry y="26" width="140" height="26" as="geometry" />
        </mxCell>
        <mxCell id="OdL-v_ZTiXRBNA4wivII-21" value="PHOTO" style="swimlane;fontStyle=0;childLayout=stackLayout;horizontal=1;startSize=26;fillColor=none;horizontalStack=0;resizeParent=1;resizeParentMax=0;resizeLast=0;collapsible=1;marginBottom=0;" vertex="1" parent="1">
          <mxGeometry x="445" y="560" width="140" height="52" as="geometry" />
        </mxCell>
        <mxCell id="OdL-v_ZTiXRBNA4wivII-22" value="Chemin" style="text;strokeColor=none;fillColor=none;align=left;verticalAlign=top;spacingLeft=4;spacingRight=4;overflow=hidden;rotatable=0;points=[[0,0.5],[1,0.5]];portConstraint=eastwest;" vertex="1" parent="OdL-v_ZTiXRBNA4wivII-21">
          <mxGeometry y="26" width="140" height="26" as="geometry" />
        </mxCell>
        <mxCell id="OdL-v_ZTiXRBNA4wivII-38" style="edgeStyle=none;rounded=0;orthogonalLoop=1;jettySize=auto;html=1;exitX=1;exitY=0.5;exitDx=0;exitDy=0;startArrow=none;startFill=0;endArrow=none;endFill=0;entryX=0;entryY=0.5;entryDx=0;entryDy=0;" edge="1" parent="1" source="OdL-v_ZTiXRBNA4wivII-49" target="OdL-v_ZTiXRBNA4wivII-8">
          <mxGeometry relative="1" as="geometry">
            <mxPoint x="430" y="363" as="targetPoint" />
          </mxGeometry>
        </mxCell>
        <mxCell id="OdL-v_ZTiXRBNA4wivII-27" value="Dépose" style="ellipse;whiteSpace=wrap;html=1;" vertex="1" parent="1">
          <mxGeometry x="240" y="330" width="120" height="50" as="geometry" />
        </mxCell>
        <mxCell id="OdL-v_ZTiXRBNA4wivII-52" style="edgeStyle=none;rounded=0;orthogonalLoop=1;jettySize=auto;html=1;exitX=0.5;exitY=1;exitDx=0;exitDy=0;entryX=0.5;entryY=0;entryDx=0;entryDy=0;startArrow=none;startFill=0;endArrow=none;endFill=0;" edge="1" parent="1" source="OdL-v_ZTiXRBNA4wivII-55" target="OdL-v_ZTiXRBNA4wivII-5">
          <mxGeometry relative="1" as="geometry" />
        </mxCell>
        <mxCell id="OdL-v_ZTiXRBNA4wivII-28" value="contient" style="ellipse;whiteSpace=wrap;html=1;" vertex="1" parent="1">
          <mxGeometry x="455" y="200" width="120" height="40" as="geometry" />
        </mxCell>
        <mxCell id="OdL-v_ZTiXRBNA4wivII-29" value="contient" style="ellipse;whiteSpace=wrap;html=1;" vertex="1" parent="1">
          <mxGeometry x="455" y="490" width="120" height="50" as="geometry" />
        </mxCell>
        <mxCell id="OdL-v_ZTiXRBNA4wivII-30" value="&lt;div&gt;Discute&lt;/div&gt;&lt;div&gt;Message, Date&lt;br&gt;&lt;/div&gt;" style="ellipse;whiteSpace=wrap;html=1;" vertex="1" parent="1">
          <mxGeometry x="30" y="190" width="120" height="50" as="geometry" />
        </mxCell>
        <mxCell id="OdL-v_ZTiXRBNA4wivII-31" value="&lt;div&gt;Enchérir&lt;/div&gt;&lt;div&gt;Prix&lt;br&gt;&lt;/div&gt;" style="ellipse;whiteSpace=wrap;html=1;" vertex="1" parent="1">
          <mxGeometry x="240" y="215" width="120" height="48" as="geometry" />
        </mxCell>
        <mxCell id="OdL-v_ZTiXRBNA4wivII-39" style="edgeStyle=none;rounded=0;orthogonalLoop=1;jettySize=auto;html=1;exitX=0;exitY=0.5;exitDx=0;exitDy=0;entryX=1;entryY=0.269;entryDx=0;entryDy=0;entryPerimeter=0;startArrow=none;startFill=0;endArrow=none;endFill=0;" edge="1" parent="1" source="OdL-v_ZTiXRBNA4wivII-58" target="OdL-v_ZTiXRBNA4wivII-4">
          <mxGeometry relative="1" as="geometry" />
        </mxCell>
        <mxCell id="OdL-v_ZTiXRBNA4wivII-40" style="edgeStyle=none;rounded=0;orthogonalLoop=1;jettySize=auto;html=1;exitX=1;exitY=0.5;exitDx=0;exitDy=0;entryX=0;entryY=0.5;entryDx=0;entryDy=0;startArrow=none;startFill=0;endArrow=none;endFill=0;" edge="1" parent="1" source="OdL-v_ZTiXRBNA4wivII-60" target="OdL-v_ZTiXRBNA4wivII-10">
          <mxGeometry relative="1" as="geometry" />
        </mxCell>
        <mxCell id="OdL-v_ZTiXRBNA4wivII-33" value="Achat Immédiat" style="ellipse;whiteSpace=wrap;html=1;" vertex="1" parent="1">
          <mxGeometry x="240" y="420" width="120" height="58" as="geometry" />
        </mxCell>
        <mxCell id="OdL-v_ZTiXRBNA4wivII-35" style="rounded=0;orthogonalLoop=1;jettySize=auto;html=1;exitX=0;exitY=0.5;exitDx=0;exitDy=0;entryX=1;entryY=0.5;entryDx=0;entryDy=0;startArrow=none;startFill=0;endArrow=none;endFill=0;" edge="1" parent="1" source="OdL-v_ZTiXRBNA4wivII-44" target="OdL-v_ZTiXRBNA4wivII-31">
          <mxGeometry relative="1" as="geometry">
            <mxPoint x="160" y="332" as="sourcePoint" />
            <mxPoint x="240.96000000000004" y="207.03999999999996" as="targetPoint" />
          </mxGeometry>
        </mxCell>
        <mxCell id="OdL-v_ZTiXRBNA4wivII-36" style="rounded=0;orthogonalLoop=1;jettySize=auto;html=1;exitX=1;exitY=0.5;exitDx=0;exitDy=0;entryX=0;entryY=0.5;entryDx=0;entryDy=0;startArrow=none;startFill=0;endArrow=none;endFill=0;" edge="1" parent="1" source="OdL-v_ZTiXRBNA4wivII-47" target="OdL-v_ZTiXRBNA4wivII-27">
          <mxGeometry relative="1" as="geometry">
            <mxPoint x="170" y="357" as="sourcePoint" />
            <mxPoint x="250.96000000000004" y="232.03999999999996" as="targetPoint" />
          </mxGeometry>
        </mxCell>
        <mxCell id="OdL-v_ZTiXRBNA4wivII-42" value="0..n" style="text;html=1;align=center;verticalAlign=middle;whiteSpace=wrap;rounded=0;fillColor=#ffffff;strokeColor=#000000;" vertex="1" parent="1">
          <mxGeometry x="190" y="263" width="40" height="20" as="geometry" />
        </mxCell>
        <mxCell id="OdL-v_ZTiXRBNA4wivII-43" style="rounded=0;orthogonalLoop=1;jettySize=auto;html=1;exitX=1;exitY=0.25;exitDx=0;exitDy=0;entryX=0.008;entryY=0.613;entryDx=0;entryDy=0;entryPerimeter=0;startArrow=none;startFill=0;endArrow=none;endFill=0;" edge="1" parent="1" source="OdL-v_ZTiXRBNA4wivII-1" target="OdL-v_ZTiXRBNA4wivII-42">
          <mxGeometry relative="1" as="geometry">
            <mxPoint x="160" y="332" as="sourcePoint" />
            <mxPoint x="240.96000000000004" y="207.03999999999996" as="targetPoint" />
          </mxGeometry>
        </mxCell>
        <mxCell id="OdL-v_ZTiXRBNA4wivII-44" value="0..n" style="text;html=1;align=center;verticalAlign=middle;whiteSpace=wrap;rounded=0;fillColor=#ffffff;strokeColor=#000000;" vertex="1" parent="1">
          <mxGeometry x="380" y="260" width="40" height="20" as="geometry" />
        </mxCell>
        <mxCell id="OdL-v_ZTiXRBNA4wivII-45" style="rounded=0;orthogonalLoop=1;jettySize=auto;html=1;exitX=0;exitY=0.5;exitDx=0;exitDy=0;entryX=1;entryY=0.5;entryDx=0;entryDy=0;startArrow=none;startFill=0;endArrow=none;endFill=0;" edge="1" parent="1" source="OdL-v_ZTiXRBNA4wivII-6" target="OdL-v_ZTiXRBNA4wivII-44">
          <mxGeometry relative="1" as="geometry">
            <mxPoint x="445" y="319" as="sourcePoint" />
            <mxPoint x="360" y="198" as="targetPoint" />
          </mxGeometry>
        </mxCell>
        <mxCell id="OdL-v_ZTiXRBNA4wivII-47" value="0..n" style="text;html=1;align=center;verticalAlign=middle;whiteSpace=wrap;rounded=0;fillColor=#ffffff;strokeColor=#000000;" vertex="1" parent="1">
          <mxGeometry x="180" y="358" width="40" height="20" as="geometry" />
        </mxCell>
        <mxCell id="OdL-v_ZTiXRBNA4wivII-48" style="rounded=0;orthogonalLoop=1;jettySize=auto;html=1;exitX=1;exitY=0.5;exitDx=0;exitDy=0;entryX=0;entryY=0.5;entryDx=0;entryDy=0;startArrow=none;startFill=0;endArrow=none;endFill=0;" edge="1" parent="1" source="OdL-v_ZTiXRBNA4wivII-3" target="OdL-v_ZTiXRBNA4wivII-47">
          <mxGeometry relative="1" as="geometry">
            <mxPoint x="160" y="371" as="sourcePoint" />
            <mxPoint x="240" y="300" as="targetPoint" />
          </mxGeometry>
        </mxCell>
        <mxCell id="OdL-v_ZTiXRBNA4wivII-49" value="1..1" style="text;html=1;align=center;verticalAlign=middle;whiteSpace=wrap;rounded=0;fillColor=#ffffff;strokeColor=#000000;" vertex="1" parent="1">
          <mxGeometry x="380" y="353" width="40" height="25" as="geometry" />
        </mxCell>
        <mxCell id="OdL-v_ZTiXRBNA4wivII-50" style="edgeStyle=none;rounded=0;orthogonalLoop=1;jettySize=auto;html=1;exitX=1;exitY=0.5;exitDx=0;exitDy=0;entryX=0.014;entryY=0.192;entryDx=0;entryDy=0;entryPerimeter=0;startArrow=none;startFill=0;endArrow=none;endFill=0;" edge="1" parent="1" source="OdL-v_ZTiXRBNA4wivII-27" target="OdL-v_ZTiXRBNA4wivII-49">
          <mxGeometry relative="1" as="geometry">
            <mxPoint x="360" y="315" as="sourcePoint" />
            <mxPoint x="446.96000000000004" y="377.99199999999996" as="targetPoint" />
          </mxGeometry>
        </mxCell>
        <mxCell id="OdL-v_ZTiXRBNA4wivII-53" value="0..n" style="text;html=1;fillColor=none;align=center;verticalAlign=middle;whiteSpace=wrap;rounded=0;strokeColor=#000000;" vertex="1" parent="1">
          <mxGeometry x="490" y="170" width="40" height="20" as="geometry" />
        </mxCell>
        <mxCell id="OdL-v_ZTiXRBNA4wivII-54" style="edgeStyle=none;rounded=0;orthogonalLoop=1;jettySize=auto;html=1;exitX=0.5;exitY=1;exitDx=0;exitDy=0;entryX=0.5;entryY=0;entryDx=0;entryDy=0;startArrow=none;startFill=0;endArrow=none;endFill=0;" edge="1" parent="1" source="OdL-v_ZTiXRBNA4wivII-12" target="OdL-v_ZTiXRBNA4wivII-53">
          <mxGeometry relative="1" as="geometry">
            <mxPoint x="515" y="144" as="sourcePoint" />
            <mxPoint x="515" y="200" as="targetPoint" />
          </mxGeometry>
        </mxCell>
        <mxCell id="OdL-v_ZTiXRBNA4wivII-55" value="1..1" style="text;html=1;fillColor=none;align=center;verticalAlign=middle;whiteSpace=wrap;rounded=0;strokeColor=#000000;" vertex="1" parent="1">
          <mxGeometry x="500" y="246" width="40" height="30" as="geometry" />
        </mxCell>
        <mxCell id="OdL-v_ZTiXRBNA4wivII-56" style="edgeStyle=none;rounded=0;orthogonalLoop=1;jettySize=auto;html=1;exitX=0.5;exitY=1;exitDx=0;exitDy=0;entryX=0.5;entryY=0;entryDx=0;entryDy=0;startArrow=none;startFill=0;endArrow=none;endFill=0;" edge="1" parent="1" source="OdL-v_ZTiXRBNA4wivII-28" target="OdL-v_ZTiXRBNA4wivII-55">
          <mxGeometry relative="1" as="geometry">
            <mxPoint x="515" y="240" as="sourcePoint" />
            <mxPoint x="515" y="280" as="targetPoint" />
          </mxGeometry>
        </mxCell>
        <mxCell id="OdL-v_ZTiXRBNA4wivII-58" value="0..n" style="text;html=1;align=center;verticalAlign=middle;whiteSpace=wrap;rounded=0;fillColor=#ffffff;strokeColor=#000000;" vertex="1" parent="1">
          <mxGeometry x="180" y="440" width="40" height="20" as="geometry" />
        </mxCell>
        <mxCell id="OdL-v_ZTiXRBNA4wivII-59" style="edgeStyle=none;rounded=0;orthogonalLoop=1;jettySize=auto;html=1;exitX=0;exitY=0.5;exitDx=0;exitDy=0;entryX=1;entryY=0.269;entryDx=0;entryDy=0;entryPerimeter=0;startArrow=none;startFill=0;endArrow=none;endFill=0;" edge="1" parent="1" source="OdL-v_ZTiXRBNA4wivII-33" target="OdL-v_ZTiXRBNA4wivII-58">
          <mxGeometry relative="1" as="geometry">
            <mxPoint x="240" y="435" as="sourcePoint" />
            <mxPoint x="160" y="423.994" as="targetPoint" />
          </mxGeometry>
        </mxCell>
        <mxCell id="OdL-v_ZTiXRBNA4wivII-60" value="0.." style="text;html=1;align=center;verticalAlign=middle;whiteSpace=wrap;rounded=0;fillColor=#ffffff;strokeColor=#000000;" vertex="1" parent="1">
          <mxGeometry x="380" y="433" width="40" height="27" as="geometry" />
        </mxCell>
        <mxCell id="OdL-v_ZTiXRBNA4wivII-61" style="edgeStyle=none;rounded=0;orthogonalLoop=1;jettySize=auto;html=1;exitX=1;exitY=0.5;exitDx=0;exitDy=0;entryX=0;entryY=0.5;entryDx=0;entryDy=0;startArrow=none;startFill=0;endArrow=none;endFill=0;" edge="1" parent="1" source="OdL-v_ZTiXRBNA4wivII-33" target="OdL-v_ZTiXRBNA4wivII-60">
          <mxGeometry relative="1" as="geometry">
            <mxPoint x="360" y="435" as="sourcePoint" />
            <mxPoint x="445" y="430" as="targetPoint" />
          </mxGeometry>
        </mxCell>
      </root>
    </mxGraphModel>
  </diagram>
</mxfile>
